<?xml version="1.0" standalone="no"?>
<!DOCTYPE svg PUBLIC "-//W3C//DTD SVG 20010904//EN"
 "http://www.w3.org/TR/2001/REC-SVG-20010904/DTD/svg10.dtd">
<svg version="1.0" xmlns="http://www.w3.org/2000/svg"
 width="512.000000pt" height="512.000000pt" viewBox="0 0 512.000000 512.000000"
 preserveAspectRatio="xMidYMid meet">
<metadata>
Created by potrace 1.14, written by Peter Selinger 2001-2017
</metadata>
<g transform="translate(0.000000,512.000000) scale(0.100000,-0.100000)"
fill="#000000" stroke="none">
<path d="M2789 5116 c-2 -2 -26 -6 -54 -9 -78 -8 -218 -60 -305 -113 -333
-201 -487 -596 -385 -985 6 -26 4 -28 -77 -54 -125 -41 -274 -114 -395 -196
-274 -186 -672 -658 -928 -1104 -53 -92 -205 -388 -205 -399 0 -2 -16 -38 -35
-79 -19 -41 -35 -78 -35 -81 0 -4 -8 -26 -19 -49 -30 -67 -135 -364 -146 -416
-2 -9 -18 -65 -34 -126 -53 -189 -90 -369 -120 -575 -36 -243 -46 -354 -46
-510 0 -109 2 -119 33 -185 41 -87 112 -157 202 -199 60 -27 74 -30 175 -30
101 0 255 9 316 19 13 2 51 6 84 10 33 4 96 13 140 20 44 7 97 16 117 19 21 3
57 10 80 15 24 6 57 12 73 15 29 6 191 43 288 68 57 14 97 48 97 81 0 21 9 27
68 44 l67 21 26 -24 c14 -13 33 -24 42 -24 47 0 392 142 607 250 590 295 1167
763 1397 1135 36 57 115 230 140 305 15 47 29 86 29 88 1 2 30 -5 65 -14 87
-23 263 -27 363 -8 329 63 590 309 679 639 25 96 30 306 8 395 -41 170 -129
329 -239 432 l-48 45 24 29 c13 16 34 40 46 54 85 100 165 282 186 424 5 33 7
113 5 176 -7 229 -95 430 -260 595 -110 110 -255 195 -395 231 -76 20 -116 14
-132 -21 -10 -23 -15 -24 -86 -21 -50 2 -78 8 -80 16 -8 24 -42 50 -64 50
-120 -1 -363 -113 -476 -219 -18 -17 -36 -31 -39 -31 -3 0 -37 30 -76 66 -104
96 -270 187 -377 208 -19 3 -46 9 -60 12 -32 7 -235 16 -241 10z"/>
</g>
</svg>
